<?xml version="1.0" encoding="UTF-8"?>
<!DOCTYPE svg PUBLIC "-//W3C//DTD SVG 1.1//EN" "http://www.w3.org/Graphics/SVG/1.1/DTD/svg11.dtd">
<!-- Creator: CorelDRAW (OEM Version) -->
<svg xmlns="http://www.w3.org/2000/svg" xml:space="preserve" width="36.0551mm" height="83.3149mm" version="1.1" style="shape-rendering:geometricPrecision; text-rendering:geometricPrecision; image-rendering:optimizeQuality; fill-rule:evenodd; clip-rule:evenodd"
viewBox="0 0 143.41 331.38"
 xmlns:xlink="http://www.w3.org/1999/xlink"
 xmlns:xodm="http://www.corel.com/coreldraw/odm/2003">
 <defs>
  <style type="text/css">
   <![CDATA[
    .str0 {stroke:#AE955F;stroke-width:0.99;stroke-miterlimit:22.9256}
    .fil0 {fill:none}
   ]]>
  </style>
 </defs>
 <g id="Layer_x0020_1">
  <metadata id="CorelCorpID_0Corel-Layer"/>
  <g id="_1780336384">
   <path class="fil0 str0" d="M40.75 239.21c-0.62,-4.09 6.01,-21.38 7.29,-26.83 2.73,-11.64 2.64,-17.17 10.04,-23.98 5.69,-5.24 13.76,-8.72 20.75,-13.26 4.05,-2.63 6.64,-4.45 9.67,-7.5 1.12,-1.13 7.44,-7.99 10.44,-4.46 2.98,3.5 0.57,10.95 -1.47,13.75 -6.64,9.14 -21.88,12.91 -30.54,20.66 -5.83,5.22 -9.92,11.18 -14.42,19.59 -2.03,3.8 -3.8,7.65 -5.53,11.64 -2.05,4.71 -3.28,10.82 -6.22,10.4zm8.15 72.3c0.51,0.67 0.3,0.34 0.42,1.54 0.05,0.48 0.05,1.2 0.08,1.71 0.05,1.1 0.1,2.19 0.18,3.23l12.75 7.36c-0.6,-1.74 -1.75,-3.87 -2.6,-5.77 -0.91,-2.03 -1.56,-3.81 -2.32,-5.74 -1.54,-3.97 -3.41,-7.33 -4.75,-11.43 -5.94,-18.08 -8.18,-38.43 -5.28,-57.34 2.42,-15.75 10.23,-33.9 22.63,-42.37 15.75,-10.75 40.9,-16.44 39.19,-42.18 -0.25,-3.83 -1.8,-9.49 -3.93,-12.08 -1.41,-1.72 -3.68,-2.1 -6.07,-1.08 -7.56,3.25 -8.33,21.03 -29.33,27.6 -9.59,3 -15.62,5.66 -21.16,11.49 -5.74,6.03 -6.57,14.28 -8.09,24.26 -1.44,9.41 -2.89,18.23 -5.73,26.92 -2.74,8.4 -5.68,17.54 -4.66,27.64 0.99,9.73 6.31,15.82 10.12,22.51 2.74,4.81 9.34,17.02 8.55,23.74z"/>
   <path class="fil0 str0" d="M71.48 0.55l-2.91 3.35c-2.77,3.46 -5.49,7.56 -7.66,11.54 -23.51,43.14 11.06,76.03 -2.55,107.23 -5.46,12.51 -15.77,16.95 -26.63,24.56 -9.41,6.59 -16.99,15.93 -21.19,29.97 -3.97,13.27 -6.14,28.72 -8.31,42.91 -2.57,16.79 -2.62,29.73 2.3,45.59 1.65,5.3 8.34,22.15 11.16,27.21 0.88,1.57 4.43,7.27 4.62,8.05 0.81,0.38 1.21,0.56 2.03,1.14 0.06,0.04 0.9,0.66 0.98,0.71 0.72,0.36 0.33,0.61 0.74,0.05 -4.52,-12.54 -11.04,-22.84 -15.03,-36.32 -4.98,-16.84 -5.34,-27.44 -2.43,-45.44 2.28,-14.06 4.18,-30.7 8.26,-43.55 10.11,-31.8 42.07,-26.23 53.08,-50.65 13.86,-30.75 -23.53,-65.14 -0.71,-107.48 2.32,-4.31 7.46,-11.74 10.71,-15.11 -0.16,-1.11 -0.03,-0.76 -1.21,-1.45 -0.66,-0.38 -1.15,-0.64 -1.72,-0.97 -1.26,-0.74 -2.17,-1.62 -3.55,-1.33z"/>
   <path class="fil0 str0" d="M84.93 323.17c1.1,-0.28 2.07,-0.98 3.02,-1.52 0.46,-0.26 1.16,-0.61 1.51,-0.85 1.12,-0.74 0.81,-0.13 0.95,-1.36 -1.72,-5.75 -4.82,-12.68 -7.36,-17.81 -3.16,-6.39 -5.28,-10.9 -6.5,-19.1 -2.15,-14.42 4.48,-31.02 10.94,-39.8 3.85,-5.23 13.32,-15.72 18.31,-20.08 5.25,-4.58 15.16,-13.64 19.68,-18.71 3.56,-3.99 7.68,-9.44 10.56,-15.04 13.89,-27.02 4.56,-54.48 -9.22,-78.91 -5.92,-10.49 -12.19,-25.97 -8.62,-40.96 4.61,-19.33 21.2,-27.22 21.7,-29.33 -1.3,-0.96 -6.9,-4.44 -8.56,-4.75 -2.11,2.58 -8.05,6.75 -12.25,13.4 -3.2,5.06 -6.47,11.48 -7.69,18.61 -2.44,14.29 3.69,32.58 9,42.73 5.94,11.35 12.92,21.94 15.8,36.44 3.04,15.34 -0.38,31.99 -6.91,43.43 -12.39,21.71 -38.57,31.42 -51.6,53.12 -12,19.97 -11.24,39.95 0.66,60.95 2.21,3.9 7.08,14.05 6.58,19.52z"/>
   <path class="fil0 str0" d="M40.74 312.7c1.36,0.45 1.2,0.58 2.26,1.4 0.85,-0.47 0.2,0.31 0.42,-1.01 -1.16,-2.44 -2.15,-6.66 -3.16,-9.4 -1.19,-3.23 -2.35,-6.05 -3.68,-9.1 -1.28,-2.94 -2.91,-5.78 -4.1,-8.71 -8.93,-21.9 -8.65,-30.71 -4.76,-55.06 1.21,-7.6 2.02,-15.5 2.71,-23.19 0.88,-9.95 1.57,-12.83 6.18,-19.81 2.8,-4.24 9.18,-9.39 14.12,-11.82 19.05,-9.37 32.36,-6.92 40.39,-37.4 4.39,-16.65 5.19,-28.62 -0.21,-44.85 -4.56,-13.73 -11.26,-25.7 -8.32,-42.48 1.51,-8.6 3.17,-12.39 6.83,-19.09 2.27,-4.15 8.31,-13 11.16,-14.62 -0.45,-1.33 -2.36,-2.35 -3.81,-2.49 -1.13,1.68 -3.59,4.23 -5.67,7.33 -31.78,47.26 8.08,70.61 -3.88,117.03 -3.97,15.42 -12.26,19.97 -27.76,24.08 -16.22,4.3 -24.31,8.07 -31.2,20.68 -8.11,14.85 -4.18,28.51 -5.66,46.09 -1.53,18.15 -2.86,27.37 3.12,45.89l15.03 36.54z"/>
   <path class="fil0 str0" d="M76.56 327.49c0.93,0.47 0.49,0.57 1.92,-0.1 0.11,-0.05 0.74,-0.4 0.86,-0.51 0.65,-0.59 0.46,-0.14 0.65,-1.13 -2.08,-6.57 -4.36,-12.84 -6.89,-18.9 -2.59,-6.21 -5.4,-12.27 -7.13,-19.13 -5.61,-22.16 0.41,-43.59 15.4,-58.85 4.83,-4.92 7.42,-7.97 12.95,-13.32 2.32,-2.24 4.24,-4.05 6.72,-6.41 6.5,-6.18 13.46,-10.33 20.08,-19.33 8.77,-11.91 10.73,-24.5 7.24,-41.93 -2.02,-10.09 -9.66,-28.16 -13.58,-38.99 -4.49,-12.43 -8.85,-28.95 -8.5,-44.03 0.17,-7.14 3.21,-15.18 6.54,-19.73 2.17,-2.97 10.02,-11.9 13.35,-12.76 0.15,-1.14 -0.14,-1 -1.24,-1.64 -0.79,-0.46 -1.17,-0.62 -1.95,-1.07 -1.26,-0.72 -2.44,-1.62 -3.94,-1.74 -3.19,2.56 -8.69,10.22 -10.99,15.14 -8.72,18.7 -3.69,49.31 1.77,67.45 5.9,19.61 18.54,42.89 14.68,62.81 -6.68,34.49 -48.7,28.71 -61.98,69.71 -13.11,40.47 15.1,71.17 14.02,84.46z"/>
   <path class="fil0 str0" d="M29.04 306.08c1.33,1.01 3.22,1.84 4.54,2.9l0.22 -0.45c-1.01,-4.65 -10.61,-27.69 -13.58,-38.98 -7.06,-26.79 -9.72,-65.17 3.77,-89.65 11.17,-20.26 31.63,-22.5 46.55,-32.26 21.71,-14.19 10.76,-40.67 4.98,-58.03 -6.78,-20.35 -10.23,-45.1 1.01,-65.29 2.73,-4.9 8.16,-11.64 11.54,-14.29 -0.46,-1.26 -3.39,-2.75 -4.97,-2.77 -0.94,2.42 -13,12.55 -16.97,34.52 -6.14,33.95 18.22,63.59 8.98,88.51 -5.55,14.98 -14.63,16.31 -28.34,23.54 -10.84,5.72 -21.2,14.49 -26.27,25.59 -5.58,12.21 -8.32,27.26 -9.55,42.41 -2.16,26.6 2.13,42.67 10.95,65.59 1.19,3.08 7.15,16.62 7.17,18.67z"/>
   <path class="fil0 str0" d="M66.91 326.42c0.75,1.36 -0.02,1.75 1.46,2.71 0.7,0.45 1.89,1.13 2.59,1.46l-0.06 -1.35c-2.36,-24.31 -23.8,-52.94 -15.21,-88.01 4.03,-16.46 11.6,-24.48 21.26,-32.28 9.75,-7.87 26.98,-17.11 31.71,-21.83 11.07,-11.03 13.38,-20.93 8.12,-40.08 -1.95,-7.08 -5.05,-12.7 -7.64,-18.98 -2.79,-6.76 -4.19,-13.49 -5.92,-21.04 -1.68,-7.32 -2.2,-15.23 -3.97,-22.63 -4.34,-18.15 -5.96,-25.8 3.4,-43.36 1.71,-3.21 8.97,-14.81 10.7,-15.89 0.11,-1.43 -1.13,-1.82 -2.49,-2.02 -0.3,0.99 -4.05,6.31 -5.1,7.87 -5.04,7.49 -10.82,18.34 -12.39,27.72 -1.86,11.12 2.88,22.79 5.03,33.66 0.73,3.68 1.1,7.87 1.74,11.74 1.28,7.72 2.63,14.47 5.24,21.31 7.26,19.07 19.86,42.23 1.11,59.88 -4.24,4 -22.55,14.4 -31.6,21.61 -9.54,7.59 -17.54,15.74 -21.66,31.54 -6.19,23.76 0.77,44.88 8.11,66.74 1.35,4.02 5.91,17.16 5.56,21.24z"/>
  </g>
 </g>
</svg>
