<?xml version="1.0" encoding="UTF-8"?>
<!DOCTYPE svg PUBLIC "-//W3C//DTD SVG 1.1//EN" "http://www.w3.org/Graphics/SVG/1.1/DTD/svg11.dtd">
<!-- Creator: CorelDRAW (OEM Version) -->
<svg xmlns="http://www.w3.org/2000/svg" xml:space="preserve" width="73.9497mm" height="85.3898mm" version="1.1" style="shape-rendering:geometricPrecision; text-rendering:geometricPrecision; image-rendering:optimizeQuality; fill-rule:evenodd; clip-rule:evenodd"
viewBox="0 0 420.11 485.1"
 xmlns:xlink="http://www.w3.org/1999/xlink"
 xmlns:xodm="http://www.corel.com/coreldraw/odm/2003">
 <defs>
  <style type="text/css">
   <![CDATA[
    .str0 {stroke:#AE955F;stroke-width:11.36;stroke-miterlimit:22.9256}
    .fil0 {fill:none}
    .fil1 {fill:#AE955F}
   ]]>
  </style>
 </defs>
 <g id="Layer_x0020_1">
  <metadata id="CorelCorpID_0Corel-Layer"/>
  <polygon class="fil0 str0" points="210.05,6.56 312.24,65.56 414.43,124.56 414.43,242.55 414.43,360.55 312.24,419.54 210.05,478.54 107.87,419.54 5.68,360.55 5.68,242.55 5.68,124.56 107.87,65.56 "/>
  <g id="_1774346592">
   <path class="fil1" d="M249.46 30.13c-4.06,2.31 -12.7,14.95 -15.93,20.88 -5.22,9.57 -7.6,14.99 -9.75,27.27 -4.2,23.97 5.37,41.07 11.89,60.68 7.7,23.17 6.57,40.27 0.3,64.05 -11.48,43.53 -30.49,40.03 -57.7,53.42 -7.06,3.48 -16.16,10.82 -20.17,16.89 -6.58,9.96 -7.56,14.07 -8.83,28.29 -0.98,10.99 -2.13,22.27 -3.87,33.12 -5.55,34.78 -5.95,47.36 6.8,78.64 1.71,4.18 4.03,8.25 5.86,12.44 1.9,4.35 3.55,8.38 5.25,13 1.45,3.92 2.85,9.95 4.51,13.43 0.7,0.69 1.38,4.85 8.26,6.57 0.05,-2.85 -1.03,-6.25 -0.42,-8.81 1.12,-9.61 -8.3,-27.04 -12.21,-33.91 -5.44,-9.56 -13.04,-18.26 -14.46,-32.15 -1.47,-14.43 2.74,-27.49 6.65,-39.48 4.05,-12.41 6.12,-25 8.18,-38.44 2.18,-14.25 3.36,-26.03 11.56,-34.65 7.91,-8.32 16.53,-12.11 30.23,-16.4 29.99,-9.39 31.1,-34.78 41.89,-39.43 3.41,-1.47 6.65,-0.91 8.67,1.54 3.05,3.7 5.25,11.79 5.61,17.26 2.44,36.76 -33.49,44.89 -55.98,60.25 -17.72,12.09 -28.88,38.01 -32.33,60.51 -4.14,27.01 -0.94,56.08 7.54,81.9 1.92,5.85 4.59,10.66 6.79,16.32 1.08,2.76 2.01,5.31 3.31,8.21 1.21,2.72 2.85,5.76 3.71,8.24l1.33 1.17c0.2,0.14 1.3,0.74 1.53,0.87 1.62,0.91 2.14,1.24 4.01,1.98l-0.34 -2.47c0.49,-5.82 -6.02,-24.6 -7.95,-30.34 -10.48,-31.22 -20.43,-61.39 -11.59,-95.32 5.88,-22.57 17.31,-34.2 30.94,-45.05 12.94,-10.3 39.08,-25.15 45.14,-30.86 26.78,-25.21 8.77,-58.28 -1.59,-85.53 -3.72,-9.77 -5.66,-19.41 -7.48,-30.44 -0.91,-5.52 -1.45,-11.51 -2.49,-16.77 -3.06,-15.52 -9.84,-32.2 -7.18,-48.07 2.24,-13.4 10.5,-28.88 17.69,-39.59 1.5,-2.23 6.86,-9.83 7.29,-11.24 -0.11,-1.66 0.8,-0.28 -1.03,-1.6l-5.54 -3.14c-2.5,-1.45 -5.01,-2.75 -7.23,-4.2 -0.49,2.28 0.26,-0.02 -0.9,0.99z"/>
   <path class="fil1" d="M231.58 19.4c-4.83,3.77 -12.58,13.41 -16.48,20.4 -16.05,28.84 -11.13,64.2 -1.44,93.26 8.26,24.8 23.91,62.61 -7.11,82.88 -21.31,13.93 -50.54,17.13 -66.49,46.07 -19.27,34.96 -15.46,89.77 -5.38,128.04 4.25,16.12 17.97,49.02 19.4,55.67 2.72,2.35 -1.13,-0.08 4.98,3.65 1.04,0.64 1.66,1.02 2.7,1.67 2.74,1.7 1.79,1.29 2.25,0.65l-21.47 -52.19c-8.55,-26.44 -6.64,-39.61 -4.46,-65.54 2.12,-25.12 -3.49,-44.63 8.09,-65.83 9.84,-18.01 21.39,-23.39 44.56,-29.54 22.14,-5.87 33.97,-12.36 39.65,-34.39 17.08,-66.3 -39.85,-99.64 5.54,-167.15 2.98,-4.43 6.48,-8.07 8.1,-10.47 -0.12,-1.39 0.18,-0.56 -0.8,-1.45l-8.25 -4.75c-1.96,-1.18 -1.64,-1.64 -3.4,-0.97z"/>
   <path class="fil1" d="M267.72 40.97c-2.47,1.54 -12.84,18.11 -15.28,22.69 -13.37,25.08 -11.06,36.01 -4.86,61.93 2.53,10.57 3.27,21.86 5.67,32.32 2.47,10.79 4.46,20.4 8.45,30.06 3.7,8.96 8.13,17 10.91,27.11 7.51,27.34 4.22,41.49 -11.59,57.24 -6.77,6.74 -31.37,19.94 -45.3,31.18 -13.8,11.14 -24.61,22.6 -30.37,46.11 -12.27,50.09 18.36,90.99 21.73,125.71 1.27,1.61 0.58,1.4 1.04,2.72l5.7 -3.32c1.49,-1 1.03,-0.03 1.35,-1.89 1.54,-18.98 -38.75,-62.82 -20.03,-120.63 18.97,-58.55 78.98,-50.3 88.52,-99.56 5.51,-28.45 -12.53,-61.7 -20.96,-89.71 -7.8,-25.91 -14.98,-69.63 -2.53,-96.33 3.27,-7.02 11.14,-17.97 15.69,-21.62 0.41,-1 -0.45,-0.77 0.4,-0.85 -2.45,-1.02 -5.26,-2.56 -6.95,-4.1 -0.11,0.06 -0.3,-0.05 -0.36,0.12 -0.07,0.19 -0.3,0.14 -0.39,0.19l-0.86 0.65z"/>
   <path class="fil1" d="M286.05 51.32c-4.76,1.23 -15.97,13.99 -19.07,18.23 -4.76,6.5 -9.1,17.99 -9.34,28.18 -0.5,21.55 5.72,45.14 12.14,62.89 5.59,15.46 16.51,41.27 19.4,55.69 4.98,24.89 2.18,42.87 -10.34,59.89 -9.46,12.85 -19.39,18.78 -28.68,27.6 -3.55,3.37 -6.28,5.95 -9.6,9.16 -7.91,7.64 -11.6,11.99 -18.5,19.02 -21.4,21.79 -30.01,52.4 -21.99,84.05 2.48,9.79 6.49,18.45 10.19,27.32 3.61,8.65 6.87,17.6 9.83,26.99 1.36,0.61 1.65,0.04 3.59,-1.1 1.72,-1.01 2.86,-1.06 3.45,-2.59 0.71,-7.82 -6.24,-22.31 -9.4,-27.88 -16.99,-29.99 -18.07,-58.54 -0.94,-87.06 18.62,-30.99 56.01,-44.87 73.7,-75.87 9.32,-16.34 14.21,-40.12 9.86,-62.03 -4.11,-20.71 -14.08,-35.83 -22.56,-52.04 -7.59,-14.5 -16.34,-40.63 -12.86,-61.03 1.74,-10.18 6.42,-19.36 10.98,-26.58 6,-9.5 14.49,-15.45 17.5,-19.14 -0.22,-1.38 -1.15,-1.65 -2.62,-2.46 -1.1,-0.6 -2.26,-1.12 -3.12,-2.02l-1.19 0.55c-0.1,0.05 -0.3,0.14 -0.45,0.22z"/>
   <path class="fil1" d="M217.15 11.22c-4.63,4.82 -11.98,15.43 -15.29,21.58 -32.59,60.47 20.82,109.59 1.02,153.51 -15.73,34.89 -61.38,26.92 -75.82,72.35 -5.83,18.36 -8.55,42.12 -11.8,62.21 -4.16,25.71 -3.66,40.85 3.46,64.9 5.7,19.25 15.01,33.96 21.46,51.87 0.09,0.11 0.2,0.15 0.25,0.35 0.21,0.93 2.49,2.21 3.26,2.66 1.06,0.61 2.78,2.03 3.58,1.59 -0.03,-2.92 -8.55,-22.26 -10.24,-26.66 -12.6,-32.73 -18.72,-55.69 -15.64,-93.68 1.76,-21.63 5.67,-43.13 13.65,-60.57 7.25,-15.85 22.03,-28.38 37.52,-36.54 19.58,-10.32 32.54,-12.23 40.47,-33.62 13.2,-35.59 -21.59,-77.93 -12.82,-126.41 5.67,-31.39 22.91,-45.86 24.24,-49.31 0.74,-1.2 1.64,-0.33 -2.84,-2.9 -4.16,-2.39 -3.03,-2.07 -4.48,-1.32z"/>
   <path class="fil1" d="M164.03 346.74c4.21,0.61 5.96,-8.12 8.89,-14.85 2.48,-5.7 5,-11.2 7.9,-16.62 6.43,-12.01 12.27,-20.53 20.59,-27.98 12.37,-11.07 34.14,-16.45 43.62,-29.51 2.91,-4.01 6.35,-14.64 2.1,-19.64 -4.29,-5.04 -13.3,4.75 -14.91,6.37 -4.32,4.36 -8.03,6.96 -13.81,10.72 -9.99,6.49 -21.51,11.46 -29.64,18.94 -10.56,9.73 -10.44,17.63 -14.34,34.25 -1.82,7.78 -11.3,32.48 -10.41,38.32z"/>
  </g>
 </g>
</svg>
