<?xml version="1.0" encoding="UTF-8"?>
<!DOCTYPE svg PUBLIC "-//W3C//DTD SVG 1.1//EN" "http://www.w3.org/Graphics/SVG/1.1/DTD/svg11.dtd">
<!-- Creator: CorelDRAW (OEM Version) -->
<svg xmlns="http://www.w3.org/2000/svg" xml:space="preserve" width="71.9736mm" height="83.2353mm" version="1.1" style="shape-rendering:geometricPrecision; text-rendering:geometricPrecision; image-rendering:optimizeQuality; fill-rule:evenodd; clip-rule:evenodd"
viewBox="0 0 351.87 406.92"
 xmlns:xlink="http://www.w3.org/1999/xlink"
 xmlns:xodm="http://www.corel.com/coreldraw/odm/2003">
 <defs>
  <style type="text/css">
   <![CDATA[
    .fil0 {fill:#AE955F}
   ]]>
  </style>
 </defs>
 <g id="Layer_x0020_1">
  <metadata id="CorelCorpID_0Corel-Layer"/>
  <g id="_1778472848">
   <path class="fil0" d="M112.78 369.84c-0.24,-0.96 -4.6,-7.96 -5.68,-9.89 -3.47,-6.22 -11.7,-26.93 -13.72,-33.44 -6.05,-19.49 -5.99,-35.4 -2.83,-56.04 2.67,-17.44 5.34,-36.43 10.22,-52.74 5.17,-17.27 14.48,-28.74 26.05,-36.84 13.35,-9.36 26.03,-14.81 32.74,-30.19 16.73,-38.35 -25.77,-78.77 3.13,-131.8 2.67,-4.89 6.01,-9.93 9.42,-14.18l3.58 -4.12c-0.23,-0.62 0.58,-1.15 -2.5,0.62l-162.07 93.76c-3.66,2.08 -7.33,4.44 -11.06,6.34l-0.04 203.53 111.23 64.73c1.78,1 0.99,0.67 1.55,0.28z"/>
   <path class="fil0" d="M198.95 392.55l0.93 0.83c1.94,-1.68 23.62,-13.88 28.07,-16.58 14.85,-9.03 32.41,-18.82 47.63,-27.68l76.19 -44.28 0.09 -203.4 -68.75 -39.63c-3.25,-1.91 -21.2,-12.89 -23.32,-13.07 -0.61,2.6 -21.01,12.3 -26.67,36.06 -4.39,18.41 3.32,37.44 10.59,50.34 16.94,30.02 28.4,63.78 11.33,96.99 -3.54,6.88 -8.61,13.58 -12.98,18.48 -5.56,6.23 -17.74,17.37 -24.19,22.99 -6.14,5.36 -17.78,18.24 -22.51,24.68 -7.93,10.79 -16.08,31.19 -13.44,48.91 1.5,10.08 4.1,15.63 7.98,23.48 3.12,6.3 6.93,14.82 9.04,21.89z"/>
   <path class="fil0" d="M211.43 21.48c-3.5,1.99 -10.93,12.86 -13.71,17.97 -4.49,8.24 -6.54,12.9 -8.39,23.47 -3.62,20.63 4.62,35.34 10.23,52.22 6.63,19.94 5.65,34.66 0.25,55.12 -9.88,37.46 -26.24,34.45 -49.65,45.97 -6.08,2.99 -13.91,9.31 -17.36,14.53 -5.67,8.57 -6.51,12.11 -7.6,24.35 -0.84,9.46 -1.84,19.16 -3.33,28.5 -4.78,29.93 -5.12,40.76 5.85,67.67 1.47,3.6 3.47,7.1 5.04,10.71 1.63,3.75 3.05,7.21 4.52,11.18 1.25,3.38 2.46,8.56 3.89,11.56 0.6,0.6 1.19,4.17 7.11,5.65 0.05,-2.45 -0.88,-5.38 -0.36,-7.58 0.97,-8.27 -7.14,-23.27 -10.51,-29.18 -4.68,-8.23 -11.22,-15.71 -12.44,-27.67 -1.26,-12.42 2.36,-23.65 5.72,-33.98 3.48,-10.68 5.27,-21.51 7.04,-33.08 1.88,-12.26 2.89,-22.4 9.94,-29.81 6.81,-7.16 14.22,-10.43 26.01,-14.12 25.81,-8.08 26.76,-29.93 36.05,-33.93 2.93,-1.26 5.72,-0.79 7.46,1.32 2.62,3.18 4.52,10.14 4.83,14.85 2.1,31.64 -28.82,38.63 -48.17,51.84 -15.25,10.41 -24.85,32.71 -27.82,52.07 -3.56,23.25 -0.81,48.26 6.49,70.48 1.65,5.03 3.95,9.17 5.84,14.04 0.93,2.38 1.73,4.57 2.85,7.06 1.04,2.34 2.46,4.96 3.2,7.09l1.14 1c0.17,0.12 1.12,0.64 1.32,0.75 1.39,0.78 1.84,1.07 3.45,1.7l-0.29 -2.13c0.43,-5.01 -5.18,-21.17 -6.84,-26.11 -9.02,-26.86 -17.58,-52.83 -9.97,-82.03 5.06,-19.43 14.9,-29.43 26.63,-38.77 11.13,-8.86 33.63,-21.65 38.85,-26.56 23.04,-21.7 7.55,-50.16 -1.37,-73.6 -3.2,-8.41 -4.87,-16.7 -6.44,-26.19 -0.79,-4.75 -1.25,-9.91 -2.14,-14.43 -2.64,-13.36 -8.46,-27.71 -6.18,-41.37 1.93,-11.53 9.03,-24.85 15.22,-34.07 1.29,-1.92 5.9,-8.46 6.27,-9.68 -0.09,-1.43 0.69,-0.24 -0.88,-1.38l-4.76 -2.7c-2.15,-1.25 -4.31,-2.36 -6.22,-3.62 -0.42,1.97 0.22,-0.02 -0.78,0.85z"/>
   <path class="fil0" d="M196.04 12.24c-4.15,3.25 -10.83,11.54 -14.18,17.56 -13.81,24.82 -9.57,55.25 -1.24,80.25 7.11,21.34 20.57,53.88 -6.12,71.32 -18.34,11.99 -43.49,14.74 -57.22,39.65 -16.58,30.08 -13.31,77.25 -4.63,110.19 3.65,13.87 15.46,42.19 16.7,47.91 2.34,2.02 -0.98,-0.07 4.28,3.14 0.9,0.55 1.43,0.88 2.32,1.43 2.36,1.46 1.54,1.11 1.94,0.56l-18.47 -44.92c-7.35,-22.75 -5.72,-34.09 -3.83,-56.4 1.82,-21.61 -3.01,-38.41 6.96,-56.65 8.47,-15.5 18.41,-20.13 38.35,-25.42 19.05,-5.05 29.23,-10.64 34.12,-29.6 14.7,-57.05 -34.29,-85.75 4.77,-143.84 2.56,-3.81 5.58,-6.95 6.97,-9.01 -0.11,-1.2 0.15,-0.48 -0.69,-1.25l-7.1 -4.09c-1.68,-1.02 -1.41,-1.41 -2.93,-0.83z"/>
   <path class="fil0" d="M227.14 30.81c-2.13,1.33 -11.05,15.58 -13.15,19.53 -11.51,21.58 -9.51,30.99 -4.18,53.29 2.17,9.09 2.82,18.81 4.88,27.81 2.13,9.28 3.84,17.56 7.27,25.87 3.19,7.71 7,14.63 9.39,23.33 6.47,23.53 3.63,35.7 -9.98,49.26 -5.82,5.8 -26.99,17.16 -38.98,26.84 -11.88,9.58 -21.18,19.45 -26.13,39.68 -10.56,43.11 15.8,78.3 18.7,108.18 1.09,1.38 0.5,1.21 0.9,2.34l4.91 -2.86c1.28,-0.86 0.88,-0.03 1.17,-1.62 1.32,-16.33 -33.35,-54.06 -17.23,-103.81 16.32,-50.39 67.97,-43.28 76.18,-85.68 4.74,-24.48 -10.79,-53.1 -18.04,-77.2 -6.71,-22.3 -12.89,-59.92 -2.18,-82.9 2.82,-6.04 9.59,-15.46 13.5,-18.61 0.35,-0.86 -0.39,-0.66 0.35,-0.73 -2.11,-0.87 -4.52,-2.2 -5.98,-3.53 -0.1,0.05 -0.26,-0.04 -0.31,0.1 -0.06,0.16 -0.26,0.12 -0.33,0.17l-0.74 0.56z"/>
   <path class="fil0" d="M242.92 39.71c-4.1,1.06 -13.74,12.04 -16.41,15.69 -4.1,5.6 -7.84,15.48 -8.04,24.25 -0.43,18.55 4.92,38.85 10.44,54.12 4.81,13.31 14.21,35.52 16.69,47.92 4.29,21.42 1.88,36.9 -8.9,51.54 -8.14,11.06 -16.68,16.16 -24.68,23.75 -3.06,2.9 -5.41,5.12 -8.26,7.88 -6.81,6.57 -9.99,10.32 -15.92,16.37 -18.42,18.75 -25.82,45.09 -18.92,72.33 2.13,8.43 5.59,15.88 8.77,23.51 3.1,7.45 5.91,15.15 8.46,23.23 1.17,0.52 1.42,0.03 3.09,-0.95 1.48,-0.87 2.46,-0.92 2.97,-2.23 0.61,-6.73 -5.37,-19.2 -8.09,-23.99 -14.62,-25.81 -15.55,-50.38 -0.81,-74.92 16.02,-26.67 48.2,-38.61 63.43,-65.29 8.02,-14.06 12.23,-34.52 8.49,-53.38 -3.54,-17.82 -12.12,-30.84 -19.42,-44.78 -6.53,-12.47 -14.06,-34.96 -11.06,-52.52 1.5,-8.76 5.52,-16.66 9.45,-22.88 5.17,-8.17 12.47,-13.3 15.06,-16.47 -0.19,-1.19 -0.99,-1.42 -2.25,-2.11 -0.95,-0.52 -1.95,-0.96 -2.69,-1.74l-1.02 0.47c-0.09,0.04 -0.26,0.12 -0.38,0.19z"/>
   <path class="fil0" d="M183.63 5.2c-3.98,4.14 -10.31,13.28 -13.16,18.57 -28.05,52.04 17.92,94.31 0.88,132.1 -13.54,30.02 -52.82,23.17 -65.24,62.26 -5.02,15.8 -7.36,36.24 -10.15,53.53 -3.58,22.12 -3.15,35.15 2.98,55.85 4.9,16.57 12.92,29.22 18.47,44.64 0.08,0.09 0.17,0.13 0.21,0.3 0.18,0.8 2.14,1.9 2.81,2.29 0.92,0.52 2.39,1.75 3.08,1.37 -0.02,-2.51 -7.35,-19.15 -8.81,-22.94 -10.84,-28.17 -16.11,-47.92 -13.46,-80.61 1.51,-18.62 4.88,-37.12 11.74,-52.12 6.24,-13.64 18.96,-24.42 32.29,-31.45 16.85,-8.88 28,-10.53 34.83,-28.94 11.36,-30.63 -18.58,-67.06 -11.03,-108.79 4.88,-27.01 19.71,-39.46 20.86,-42.43 0.64,-1.03 1.41,-0.29 -2.44,-2.5 -3.58,-2.05 -2.61,-1.78 -3.86,-1.13z"/>
   <path class="fil0" d="M137.91 293.93c3.62,0.52 5.13,-6.99 7.65,-12.78 2.13,-4.91 4.3,-9.64 6.8,-14.3 5.53,-10.34 10.56,-17.66 17.72,-24.07 10.65,-9.52 29.38,-14.16 37.54,-25.39 2.5,-3.45 5.47,-12.6 1.81,-16.9 -3.69,-4.34 -11.45,4.08 -12.83,5.48 -3.72,3.75 -6.91,5.99 -11.88,9.22 -8.6,5.59 -18.51,9.86 -25.51,16.3 -9.09,8.37 -8.99,15.17 -12.34,29.47 -1.57,6.7 -9.72,27.95 -8.96,32.98z"/>
  </g>
 </g>
</svg>
